<svg width="300" height="300" viewBox="0 0 300 300" fill="none" xmlns="http://www.w3.org/2000/svg">
<path d="M51.771 268.562C-2.47918 237.24 -2.47918 186.458 51.771 155.136C106.021 123.815 193.979 123.815 248.23 155.136C302.48 186.458 302.48 237.24 248.23 268.562C193.979 299.883 106.021 299.883 51.771 268.562Z" fill="#F5F5F5"/>
<path d="M95.1858 270.072C118.725 270.072 137.807 259.054 137.807 245.464C137.807 231.873 118.725 220.856 95.1858 220.856C71.6466 220.856 52.5642 231.873 52.5642 245.464C52.5642 259.054 71.6466 270.072 95.1858 270.072Z" fill="#E0E0E0"/>
<path d="M193.708 233.977C223.266 218.036 240.797 193.19 232.864 178.481C224.932 163.773 194.54 164.772 164.982 180.713C135.424 196.654 117.893 221.5 125.825 236.209C133.757 250.917 164.149 249.918 193.708 233.977Z" fill="#E0E0E0"/>
<path d="M223.111 199.028C229.022 191.982 238.28 187.391 248.691 184.682C258.969 182.008 260.812 175.684 253.999 173.632C246.275 171.306 236.638 175.581 230.424 181.526C219.594 191.888 218.237 199.819 218.237 199.819L223.111 199.028Z" fill="#6DDEF3"/>
<path opacity="0.15" d="M223.111 199.028C229.022 191.982 238.28 187.391 248.691 184.682C258.969 182.008 260.812 175.684 253.999 173.632C246.275 171.306 236.638 175.581 230.424 181.526C219.594 191.888 218.237 199.819 218.237 199.819L223.111 199.028Z" fill="black"/>
<path d="M220.068 198.616C220.023 198.616 219.979 198.606 219.936 198.585C219.787 198.513 219.725 198.333 219.798 198.185C228.57 180.186 247.983 175.758 252.702 176.091C252.867 176.103 252.99 176.248 252.979 176.413C252.966 176.578 252.814 176.702 252.657 176.69C248.049 176.337 228.975 180.726 220.338 198.447C220.285 198.554 220.178 198.616 220.068 198.616Z" fill="white"/>
<path d="M218.236 200.9C218.236 202.173 219.615 202.945 220.715 202.304C226.21 199.103 234.228 197.336 247.202 201.028C254.099 202.99 257.495 201.677 258.95 198.868C260.566 195.748 257.142 192.733 253.246 191.31C239.969 186.458 227.985 189.771 218.236 199.45L218.236 200.9Z" fill="#6DDEF3"/>
<path d="M218.992 201.158C218.909 201.158 218.827 201.124 218.768 201.058C218.657 200.934 218.668 200.745 218.792 200.634C230.255 190.388 248.017 192.383 254.738 196.379C254.881 196.464 254.927 196.648 254.843 196.791C254.758 196.933 254.574 196.979 254.431 196.895C247.846 192.98 230.437 191.031 219.191 201.082C219.134 201.133 219.063 201.158 218.992 201.158Z" fill="white"/>
<path d="M89.9503 224.793C84.9115 217.099 76.2601 211.447 66.2413 207.53C56.3503 203.662 55.2667 197.164 62.2747 195.931C70.2187 194.531 79.2841 199.914 84.7531 206.551C94.2847 218.117 94.6969 226.153 94.6969 226.153L89.9503 224.793Z" fill="#6DDEF3"/>
<path opacity="0.15" d="M89.9503 224.793C84.9115 217.099 76.2601 211.447 66.2413 207.53C56.3503 203.662 55.2667 197.164 62.2747 195.931C70.2187 194.531 79.2841 199.914 84.7531 206.551C94.2847 218.117 94.6969 226.153 94.6969 226.153L89.9503 224.793Z" fill="black"/>
<path d="M93.0211 224.743C93.0655 224.749 93.1105 224.744 93.1549 224.728C93.3121 224.674 93.3943 224.503 93.3397 224.347C86.7523 205.439 67.9981 198.751 63.2725 198.526C63.1069 198.518 62.9671 198.647 62.9593 198.812C62.9521 198.978 63.0895 199.118 63.2461 199.126C67.8637 199.318 86.2873 205.927 92.7733 224.544C92.8123 224.656 92.9113 224.731 93.0211 224.743Z" fill="white"/>
<path d="M94.7413 225.787C94.5205 227.642 92.4217 228.605 90.8695 227.565C85.7839 224.158 78.2053 221.947 65.7919 223.937C58.7107 225.072 55.4941 223.368 54.3805 220.406C53.1439 217.117 56.8993 214.528 60.9355 213.574C74.6929 210.322 86.2021 215.025 94.7413 225.787Z" fill="#6DDEF3"/>
<path d="M93.7897 227.394C93.8719 227.404 93.9571 227.38 94.0237 227.321C94.1479 227.211 94.1593 227.022 94.0495 226.897C83.8753 215.37 66.0025 215.256 58.8559 218.431C58.7047 218.499 58.6363 218.676 58.7035 218.827C58.7713 218.979 58.9483 219.046 59.0995 218.98C66.1009 215.869 83.6185 215.987 93.5995 227.295C93.6511 227.352 93.7189 227.386 93.7897 227.394Z" fill="white"/>
<path d="M228.494 87.7025L228.496 87.6983L228.401 87.6497C228.397 87.6479 228.394 87.6461 228.391 87.6443L205.519 74.4779C205.512 74.4743 205.505 74.4707 205.498 74.4665L205.364 74.3981L205.361 74.4041C194.677 69.0143 180.42 70.6307 165.086 80.5457C134.281 100.466 110.806 146.317 112.655 182.955C113.576 201.218 120.617 213.741 131.261 219.246L131.259 219.25L131.353 219.298C131.357 219.301 131.361 219.302 131.365 219.304L154.241 232.473C154.245 232.475 154.248 232.476 154.252 232.478L154.364 232.536L154.366 232.531C165.053 237.938 179.322 236.326 194.669 226.402C225.474 206.482 248.949 160.632 247.1 123.993C246.179 105.73 239.137 93.2069 228.494 87.7025Z" fill="#37474F"/>
<path d="M153.463 232.056L131.372 219.302C131.356 219.303 131.356 219.303 131.356 219.303L131.253 219.241C120.615 213.722 113.577 201.199 112.657 182.962C111.832 166.622 116.054 148.46 123.694 131.592L123.848 131.222L146.574 144.756C138.917 161.625 134.712 179.787 135.536 196.127C136.438 213.998 143.2 226.368 153.463 232.056Z" fill="#263238"/>
<path d="M194.669 226.401C225.474 206.481 248.948 160.631 247.1 123.992C245.251 87.3537 218.78 73.8003 187.974 93.7209C157.168 113.641 133.694 159.491 135.542 196.13C137.392 232.769 163.863 246.321 194.669 226.401Z" fill="#455A64"/>
<path d="M220.757 84.8604L182.149 164.384L173.838 155.378C171.274 152.593 167.62 150.995 163.813 150.995C160.368 150.995 157.074 152.279 154.535 154.613C149.01 159.719 148.666 168.376 153.769 173.912L175.66 197.626C178.084 200.251 181.385 201.803 184.955 201.996C185.207 202.009 185.459 202.016 185.713 202.016C186.365 202.016 187.027 201.969 187.691 201.875C192.17 201.209 196.018 198.387 197.981 194.328L242.261 103.123C237.74 93.0107 230.176 86.7222 220.757 84.8604Z" fill="#37474F"/>
<path d="M252.112 58.6631C251.871 58.5245 251.624 58.3931 251.37 58.2701C245.475 55.4201 238.363 57.8783 235.518 63.7553L186.387 164.952L183.596 161.927C182.765 161.025 181.823 160.283 180.811 159.703C179.345 158.863 173.117 155.256 172.11 154.675C167.744 152.155 162.046 152.63 158.125 156.235C153.328 160.667 153.029 168.184 157.459 172.99L179.351 196.705C180.184 197.608 181.137 198.361 182.177 198.953C183.607 199.766 189.812 203.364 190.828 203.953C192.428 204.882 194.237 205.427 196.135 205.529C196.917 205.571 197.702 205.54 198.509 205.425C202.396 204.847 205.74 202.395 207.444 198.873L265.567 79.1543C268.297 73.5203 266.167 66.7715 260.834 63.6995C260.591 63.5585 253.664 59.5565 252.112 58.6631Z" fill="#6DDEF3"/>
<path opacity="0.15" d="M252.112 58.6631C251.871 58.5245 251.624 58.3931 251.37 58.2701C245.475 55.4201 238.363 57.8783 235.518 63.7553L186.387 164.952L183.596 161.927C182.765 161.025 181.823 160.283 180.811 159.703C179.345 158.863 173.117 155.256 172.11 154.675C167.744 152.155 162.046 152.63 158.125 156.235C153.328 160.667 153.029 168.184 157.459 172.99L179.351 196.705C180.184 197.608 181.137 198.361 182.177 198.953C183.607 199.766 189.812 203.364 190.828 203.953C192.428 204.882 194.237 205.427 196.135 205.529C196.917 205.571 197.702 205.54 198.509 205.425C202.396 204.847 205.74 202.395 207.444 198.873L265.567 79.1543C268.297 73.5203 266.167 66.7715 260.834 63.6995C260.591 63.5585 253.664 59.5565 252.112 58.6631Z" fill="black"/>
<path opacity="0.15" d="M190.826 203.952C189.814 203.365 183.607 199.767 182.176 198.951C181.137 198.359 180.181 197.605 179.349 196.705L157.457 172.991C156.463 171.907 155.714 170.678 155.195 169.387L163.9 174.41C164.414 175.706 165.174 176.936 166.174 178.02L188.066 201.733C188.881 202.616 189.809 203.36 190.826 203.952Z" fill="black"/>
<path opacity="0.15" d="M246.98 65.1365C245.863 66.1313 244.924 67.3601 244.231 68.7851L193.698 172.874L186.389 164.951L235.52 63.7565C236.207 62.3261 237.157 61.1027 238.275 60.1079L246.98 65.1365Z" fill="black"/>
<path d="M260.084 63.3018C254.189 60.4518 247.077 62.91 244.232 68.7864L193.697 172.874L183.596 161.927C179.183 157.133 171.665 156.829 166.84 161.266C162.043 165.698 161.744 173.215 166.174 178.021L188.065 201.736C190.168 204.014 193.034 205.361 196.135 205.529C196.918 205.571 197.703 205.54 198.509 205.425C202.397 204.847 205.741 202.396 207.445 198.873L265.568 79.1544C268.421 73.263 265.963 66.1524 260.084 63.3018Z" fill="#6DDEF3"/>
<path d="M94.3368 74.9918C89.7606 74.9918 86.6262 76.1834 83.3754 80.8136C80.394 85.0604 72.1914 99.2198 72.1914 99.2198C72.1914 99.2198 66.21 86.9113 65.5884 84.4555C64.9668 82.0003 65.022 80.9102 65.613 79.844C66.3408 78.5306 66.99 77.3798 67.128 75.6224C67.3596 72.6746 68.0838 70.1486 67.4214 70.0646C65.589 69.9596 65.52 72.3092 64.5582 73.6994C64.215 74.195 63.093 74.2676 62.7144 73.4972C62.31 72.6752 62.5278 71.327 62.3316 70.355C62.4192 69.5144 62.4954 69.2426 62.5908 68.75C63.1068 68.87 63.8574 68.8844 64.6908 68.8088C65.4816 70.052 66.0246 70.5745 67.128 70.07C67.2738 69.8371 66.654 68.2436 65.9364 67.0946C65.823 66.9127 65.6502 66.7748 65.4438 66.7178C64.335 66.4118 63.078 66.3368 61.3746 66.6062C61.1736 66.638 60.9666 66.7274 60.8532 66.896C60.2178 67.838 59.8374 68.792 59.6826 69.2768C59.601 69.5324 59.3646 69.5258 59.3052 69.3044C58.7202 66.407 58.7118 62.2928 58.7118 60.3632C58.7118 58.8476 56.4936 58.6094 56.4162 60.7808C56.337 63.005 56.2794 67.1222 56.5662 69.5246C56.6004 69.7862 56.3046 69.9116 56.1972 69.6248C55.8108 68.5952 54.8694 65.4955 54.4746 60.1441C54.3684 58.7065 52.0404 58.469 52.0578 60.4922C52.1052 66.0362 53.3904 71.1476 53.3904 71.1476C53.4582 71.4014 53.2284 71.6234 53.0526 71.3359C52.2786 70.07 51.0612 66.9253 50.445 64.7617C49.9512 63.0259 47.6304 63.4664 48.036 65.6312C48.7638 69.5138 49.9164 74.4266 51.633 77.9336C53.469 81.6848 55.0578 83.5609 55.9674 86.5075C56.877 89.4547 60.6546 106.141 64.6914 112.645C67.854 117.741 71.4726 117.273 75.3642 114.585C79.2558 111.897 93.171 92.5082 93.171 92.5082L94.3368 74.9918Z" fill="#9E6767"/>
<path d="M72.1914 99.2191C72.1914 99.2191 74.1432 102.529 74.4396 105.172C74.4396 105.172 75.3822 101.387 73.0638 97.7197L72.1914 99.2191Z" fill="#874C4C"/>
<path d="M95.3088 75.0066C92.9808 74.7672 90.087 74.6868 86.8536 76.719C83.6202 78.7512 82.4988 81.5886 80.934 84.0648C79.3692 86.5416 73.9542 95.322 73.9542 95.322C73.9542 95.322 75.9396 103.657 83.8392 105.374L95.6652 89.3274L95.3088 75.0066Z" fill="#455A64"/>
<path d="M105.914 221.536C106.492 221.463 107.309 223.506 107.321 224.173C107.332 224.84 106.664 226.274 105.778 227.616C104.893 228.959 103.667 230.622 102.871 232.792C102.193 234.641 101.567 235.853 99.6798 238.273C97.5768 240.969 92.6484 245.477 85.1574 243.514C83.3292 243.035 82.4148 242.459 81.753 241.794C81.1944 241.233 80.9292 240.323 81.2292 239.502L105.914 221.536Z" fill="#263238"/>
<path d="M91.203 219.199C91.197 219.22 91.1916 219.242 91.1868 219.263C91.0572 219.813 91.167 220.388 91.2366 220.949C91.4814 222.918 91.2192 224.949 90.4812 226.791C89.985 228.03 89.2752 229.181 88.3968 230.184C87.5022 231.206 86.0382 232.286 84.8964 233.015C81.1014 235.437 80.694 237.055 81.2286 239.502C82.4976 242.352 91.0992 244.086 96.0438 239.841C97.9758 238.182 99.4422 236.725 100.75 233.441C101.67 231.132 102.358 229.825 103.244 228.162C104.203 226.364 106.016 224.333 106.069 222.478C106.097 221.459 105.089 219.564 104.108 218.002C103.209 216.569 102.283 215.207 101.473 215.366L101.696 216.176C101.023 216.877 100.043 217.138 99.4524 217.961C98.7234 218.975 98.7498 220.338 98.2962 221.502C98.2524 221.615 98.1912 221.737 98.076 221.772C97.9536 221.809 97.8204 221.724 97.7604 221.611C97.7004 221.498 97.695 221.365 97.6908 221.237C97.6734 220.655 97.6554 220.073 97.638 219.491C97.6278 219.158 97.6068 218.795 97.3854 218.545C96.9174 218.016 95.763 218.078 95.1222 218.052C94.2432 218.016 93.4074 218.153 92.5374 218.207C92.214 218.228 91.9716 218.208 91.6962 218.429C91.4574 218.622 91.2858 218.903 91.203 219.199Z" fill="#37474F"/>
<path d="M78.4913 184.316C80.4905 190.885 89.8307 213.629 90.3917 214.997C90.9533 216.366 92.2499 219.512 92.2499 219.512C92.2499 219.512 93.7757 220.14 96.0437 219.669C96.2399 221.848 96.5687 225.264 96.6983 226.987C96.7415 228.985 96.9155 231.453 96.4859 233.427C96.1193 235.11 95.6957 236.873 95.3783 238.558C95.2379 239.304 95.0976 240.051 94.9853 240.802C94.8659 241.596 94.7891 242.454 95.1731 243.159C95.3531 243.489 95.6237 243.762 95.9141 244.001C97.2083 245.066 98.9501 245.518 100.621 245.382C101.505 245.31 102.395 245.073 103.115 244.556C104.567 243.516 105.078 241.71 105.817 240.174C106.619 238.509 106.358 238.326 106.427 236.543C106.475 235.295 106.82 232.126 107.32 228.815C107.819 225.504 109.967 213.864 110.998 202.264C111.712 194.234 110.998 186.785 110.998 186.785C119.194 164.517 122.843 151.28 123.915 143.883C125.003 136.371 124.482 133.698 124.344 129.374L84.4871 130.333C81.2831 150.934 75.8093 175.505 78.4913 184.316Z" fill="#9E6767"/>
<path d="M77.8691 167.872C78.6899 160.3 84.3534 131.194 84.3534 131.194H124.508C124.508 131.194 124.762 136.782 124.69 139.347C124.617 141.913 123.793 146.607 122.355 152.536C120.917 158.466 115.608 175.268 114.582 177.748C113.555 180.229 111.568 187.391 111.568 187.391C112.553 200.857 109.992 212.941 108.071 229C108.071 229 107.516 231.169 101.825 230.74C96.2945 230.322 95.1785 228.284 95.1785 228.284L94.8084 214.426C94.8084 214.426 91.7843 215.354 90.0089 214.929C90.0089 214.929 78.1235 185.588 77.5487 183.82C76.9757 182.052 77.0477 175.444 77.8691 167.872Z" fill="#6DDEF3"/>
<path opacity="0.45" d="M77.8691 167.872C78.6899 160.3 84.3534 131.194 84.3534 131.194H124.508C124.508 131.194 124.762 136.782 124.69 139.347C124.617 141.913 123.793 146.607 122.355 152.536C120.917 158.466 115.608 175.268 114.582 177.748C113.555 180.229 111.568 187.391 111.568 187.391C112.553 200.857 109.992 212.941 108.071 229C108.071 229 107.516 231.169 101.825 230.74C96.2945 230.322 95.1785 228.284 95.1785 228.284L94.8084 214.426C94.8084 214.426 91.7843 215.354 90.0089 214.929C90.0089 214.929 78.1235 185.588 77.5487 183.82C76.9757 182.052 77.0477 175.444 77.8691 167.872Z" fill="black"/>
<path opacity="0.2" d="M94.8995 150.168C89.2139 145.041 87.9497 140.962 87.9497 140.962C92.1875 145.964 97.9619 148.986 97.9619 148.986C97.9619 148.986 92.5631 177.498 92.9561 183.361C93.3485 189.223 94.8101 214.426 94.8101 214.426C94.8209 214.669 90.9821 187.772 90.8729 185.622C90.5855 179.96 94.8995 150.168 94.8995 150.168Z" fill="black"/>
<path d="M107.415 243.278C107.975 243.437 107.904 245.108 107.652 245.727C107.399 246.346 106.402 247.529 105.057 248.417C103.713 249.304 102.462 250.547 101.25 252.518C100.388 253.919 98.2163 256.585 95.2793 258.346C92.3429 260.106 88.0025 260.722 84.7781 259.805C81.0113 258.736 80.6603 257.813 80.6957 256.391L107.415 243.278Z" fill="#263238"/>
<path d="M95.7599 234.553C94.7723 239.376 93.0497 242.877 89.0555 245.845C85.8797 248.205 83.5721 249.405 81.0383 251.514C79.9589 252.413 79.8683 254.328 80.6957 256.392C82.4081 257.768 84.8441 258.555 88.1165 258.55C91.7735 258.544 93.1805 257.899 95.2793 256.462C96.4877 255.635 97.3235 254.88 98.1455 254.055C99.9023 252.292 101.127 250.116 102.395 248.718C103.664 247.32 106.406 245.893 107.186 244.206C107.615 243.279 107.433 241.137 107.146 239.313C106.883 237.64 107.396 234.7 106.588 234.529C106.605 234.532 106.478 235.726 106.478 235.726C106.412 235.998 106.243 236.136 105.677 236.331C105.299 236.462 104.527 236.443 104.133 236.377C103.671 236.301 103.407 236.308 103.1 236.67C102.558 237.308 102.414 238.206 101.72 238.733C101.672 238.77 101.619 238.805 101.559 238.818C101.5 238.831 101.431 238.818 101.392 238.771C101.349 238.718 101.354 238.642 101.361 238.574C101.428 237.976 101.495 237.378 101.562 236.78C101.582 236.599 101.602 236.416 101.577 236.236C101.529 235.903 101.277 235.618 100.997 235.448C100.508 235.15 99.9353 234.932 99.3851 234.778C98.8013 234.615 98.2001 234.528 97.5971 234.474C96.9911 234.418 96.3587 234.406 95.7599 234.553Z" fill="#455A64"/>
<path d="M120.88 76.7196C120.88 76.7196 122.534 78.9918 123.858 83.6658C123.858 83.6658 126.379 94.3524 126.379 107.017C126.379 117.616 124.949 134.795 124.949 134.795C112.645 140.963 92.7966 137.315 84.0618 131.301C84.4152 129.391 84.7152 119.36 85.4016 112.743C85.8672 101.389 86.25 95.4402 86.3304 90.39C86.4906 80.2974 91.5138 75.0852 95.3082 75.0078L104.944 75.1584L120.88 76.7196Z" fill="#6DDEF3"/>
<path d="M123.916 131.679C122.087 133.185 118.495 136.079 117.838 137.536C117.085 139.205 116.617 141.717 116.128 142.688C115.639 143.658 116.389 144.111 117.443 143.772C118.497 143.434 119.132 142.533 119.946 140.35C120.76 138.167 123.029 136.458 123.029 136.458L123.916 131.679Z" fill="#874C4C"/>
<path d="M117.235 151.321C117.671 152.165 118.695 152.169 119.642 152.246C120.991 152.355 121.752 152.26 123.044 151.859C124.336 151.457 125.54 150.692 126.314 149.582C127.239 148.256 127.474 146.585 128.002 145.057C129.11 141.844 132.398 139.531 132.934 136.129C133.156 134.722 133.157 133.068 133.556 132.195C133.791 131.681 139.196 122.374 141.124 118.343C142.977 114.468 144.362 112.645 142.683 107.986C141.004 103.327 135.282 86.943 131.235 81.2502C128.939 78.0204 125.296 77.1006 120.88 76.7178C117.521 85.4712 121.431 94.5102 121.431 94.5102L130.318 111.656C130.318 111.656 126.863 123.464 124.703 130.03C124.103 131.854 122.891 132.981 121.528 135.003C120.937 135.881 119.575 137.418 119.092 138.36C118.469 139.573 118.485 140.35 118.193 142.048C117.727 144.755 117.027 150.919 117.235 151.321Z" fill="#9E6767"/>
<path d="M120.406 76.6724C122.727 76.7654 126.063 77.1578 128.059 78.1652C130.054 79.1726 131.434 80.4176 133.73 85.0118C136.027 89.6066 139.371 98.5352 139.371 98.5352C139.371 98.5352 138.261 105.272 127.607 107.02L120.406 93.7436C120.406 93.7436 117.197 85.472 120.406 76.6724Z" fill="#455A64"/>
<path d="M92.7269 55.2274C93.0743 55.7338 93.2675 56.4256 93.5417 56.9788C93.9275 57.7576 94.3139 58.5466 94.8881 59.2078C96.2687 60.7984 98.2109 61.9642 99.9761 63.0898C101.048 63.7738 102.272 64.417 103.582 64.2292C104.911 64.0384 106.349 64.327 107.703 64.4482C109.277 64.5892 110.85 64.7302 112.424 64.8712L112.157 69.8356C112.157 69.8356 112.742 68.5192 113.542 66.9496C114.23 65.6002 117.097 58.75 117.107 58.7242C118.528 55.33 120.217 50.8078 118.516 47.242C118.114 46.4008 117.52 45.6166 116.669 45.1252C116.84 44.4706 116.894 44.0152 116.825 43.435C116.597 41.5162 115.621 40.4188 114.319 39.4606C113.017 38.5024 111.441 37.9888 109.865 37.6264C107.755 37.141 105.587 36.901 103.422 36.9094C101.267 36.9178 99.2147 37.279 97.1003 37.6354C95.9357 37.8316 94.7603 37.99 93.5777 38.0032C93.0815 38.0086 92.5307 38.0416 92.0525 37.9306C91.4327 37.7866 90.8117 37.4824 90.2129 37.2664C90.1061 37.228 89.9855 37.1902 89.8841 37.24C89.7809 37.2904 89.7365 37.4122 89.7065 37.5232C89.3273 38.911 89.8043 40.7152 90.6869 41.851C90.3263 41.8054 90.0473 41.683 89.9063 41.6242C89.6147 41.5024 89.3621 41.335 89.0957 41.1688C88.6169 40.87 88.3235 40.5226 87.9569 40.0822C87.9059 40.021 87.8483 39.9556 87.7697 39.9418C87.6509 39.9208 87.5495 40.0246 87.4781 40.1218C86.7941 41.056 86.6231 42.3028 86.8541 43.438C87.0851 44.5726 87.6845 45.6052 88.4153 46.504C87.6311 47.6692 87.6191 49.2532 88.2029 50.5306C88.4621 51.0976 88.8287 51.61 89.2631 52.0558C89.8013 52.6078 90.4397 53.059 91.0061 53.5726C91.5839 54.0976 92.2805 54.577 92.7269 55.2274Z" fill="#37474F"/>
<path d="M107.107 46.9603C107.12 48.2833 107.306 49.2074 107.446 49.6148C107.725 50.4284 108.191 50.9654 108.786 51.5876C109.396 52.2254 110.152 52.7336 110.644 53.4656C111.316 54.4646 111.547 55.7522 111.689 56.921C111.775 57.632 111.993 58.4066 112.601 58.7833C113.885 59.5772 114.654 58.0376 115.339 57.2822C116.222 56.4656 118.84 55.4707 120.051 58.2529C121.306 61.1353 118.993 64.952 116.886 65.5388C113.254 66.5504 112.466 64.0796 112.466 64.0796L111.77 77.0395C109.719 80.9233 104.907 82.1558 101.746 81.5378C99.0161 81.0044 97.5161 79.0922 100.083 76.3165L100.222 72.3697C100.222 72.3697 96.9479 72.7585 95.3663 72.4609C92.7353 71.9659 91.4309 69.7309 90.7217 66.8425C89.5829 62.2039 89.0621 57.3284 90.4703 46.8847C91.1171 46.5283 93.7121 48.551 97.6415 48.8222C101.546 49.0922 105.148 48.0433 107.107 46.9603Z" fill="#9E6767"/>
<path d="M100.222 72.3706C100.222 72.3706 106.163 71.3734 108.262 70.3432C109.667 69.6538 110.846 68.4184 111.206 67.6138C111.206 67.6138 110.763 69.3526 109.478 70.8898C107.906 72.7702 100.171 73.9408 100.171 73.9408L100.222 72.3706Z" fill="#874C4C"/>
<path d="M103.29 51.5757L106.055 52.4217C106.271 51.6333 105.826 50.8047 105.063 50.5707C104.299 50.3367 103.505 50.7867 103.29 51.5757Z" fill="#263238"/>
<path d="M102.329 64.7031L98.2577 66.0819C98.6183 67.2477 99.8219 67.8837 100.946 67.5033C102.071 67.1229 102.689 65.8689 102.329 64.7031Z" fill="#874C4C"/>
<path d="M102 65.6997C100.876 65.6997 99.9384 66.4767 99.6786 67.5207C100.079 67.6443 100.518 67.6485 100.946 67.5039C101.736 67.2363 102.268 66.5355 102.394 65.7399C102.265 65.7183 102.135 65.6997 102 65.6997Z" fill="#F28F8F"/>
<path d="M90.9444 52.0403L93.753 51.6701C93.6696 50.9063 92.973 50.3699 92.1972 50.4719C91.422 50.5739 90.861 51.2759 90.9444 52.0403Z" fill="#263238"/>
<path d="M108.241 53.2393L117.52 56.4193C117.52 56.4193 116.066 56.3017 114.846 57.7765L108.274 55.2799L108.241 53.2393Z" fill="#263238"/>
<path d="M92.3256 56.8588C92.3052 57.4948 92.7846 58.0252 93.3972 58.0432C94.0092 58.0612 94.5228 57.5608 94.5432 56.9242C94.5642 56.2882 94.0842 55.7578 93.4722 55.7392C92.8596 55.7212 92.3466 56.2222 92.3256 56.8588Z" fill="#263238"/>
<path d="M102.93 56.8642C102.91 57.5002 103.389 58.0306 104.002 58.0486C104.614 58.0666 105.127 57.5662 105.148 56.9296C105.169 56.2936 104.689 55.7626 104.077 55.7446C103.464 55.7272 102.951 56.2282 102.93 56.8642Z" fill="#263238"/>
<path d="M86.8523 53.9123C86.8931 54.4763 87.2531 55.0007 87.4379 55.2203C87.5351 55.3361 87.6251 55.4885 87.6731 55.6865C87.8897 56.5787 88.0745 58.2695 88.4975 59.2193C88.9223 60.1679 89.8085 61.6728 92.3003 61.7298C92.7851 61.7417 93.2141 61.7021 93.5945 61.6205C93.6275 61.6145 93.6605 61.6061 93.6923 61.5995C94.0949 61.5059 94.4423 61.3631 94.7441 61.1855C94.7651 61.1729 94.7867 61.1597 94.8065 61.1466C94.8377 61.1286 94.8671 61.1099 94.8965 61.0895C94.9229 61.0727 94.9487 61.0541 95.0093 61.0115C95.0453 60.9863 95.0795 60.9605 95.1137 60.9329C95.1533 60.9029 95.1905 60.8723 95.2277 60.8399C95.2649 60.8093 95.3009 60.7775 95.3369 60.7433C95.4083 60.6773 95.4749 60.609 95.5403 60.5376C95.9087 60.1374 96.1745 59.6681 96.3851 59.1941C96.9335 57.9593 96.7913 56.2313 97.6937 56.0315C97.7273 56.0243 97.7645 56.0183 97.8017 56.0159C97.8389 56.0117 97.8779 56.0111 97.9187 56.0111C99.1457 56.0291 99.0089 57.9114 99.6959 59.2548C100.381 60.6006 101.516 61.9127 104.177 61.9499C104.296 61.9523 104.411 61.95 104.522 61.9469C104.616 61.9427 104.708 61.9379 104.796 61.9283C105.025 61.9121 105.239 61.8798 105.437 61.8378C105.506 61.8222 105.573 61.8077 105.638 61.7909C105.704 61.7741 105.769 61.7543 105.831 61.7363C105.871 61.7255 105.912 61.7117 105.953 61.6979C106.224 61.6037 106.462 61.4903 106.673 61.3595C106.757 61.3067 106.836 61.2534 106.915 61.1969C107.067 61.0848 107.201 60.9659 107.332 60.8315C107.731 60.4163 107.972 59.9573 108.138 59.5829C108.551 58.6499 108.659 56.9597 108.865 56.0795C108.92 55.8455 108.992 55.6829 109.068 55.5701C109.24 55.3151 109.651 54.8723 109.667 54.3077C109.684 53.7431 109.286 53.2511 108.926 53.1989C108.718 53.1689 108.499 53.1395 108.274 53.1119C106.174 52.8575 103.435 52.7453 101.797 53.1899C99.7433 53.7515 99.0311 54.4097 97.8857 54.3935C96.8147 54.3683 96.1193 53.6855 94.1741 53.0501C92.6219 52.5455 90.0623 52.5605 88.1075 52.7393C87.8981 52.7585 87.6959 52.7795 87.5021 52.8029C87.1661 52.8407 86.8115 53.3483 86.8523 53.9123ZM100.363 55.1969C100.472 55.0373 100.676 54.8723 100.948 54.7193C100.981 54.6977 101.016 54.6791 101.053 54.6605C101.072 54.6491 101.092 54.6395 101.111 54.6299C101.203 54.5825 101.299 54.5363 101.401 54.4931C101.486 54.4559 101.576 54.4187 101.669 54.3833C101.938 54.2789 102.236 54.1859 102.545 54.1073C102.66 54.0785 102.776 54.0503 102.895 54.0263C103.192 53.9621 103.494 53.9153 103.797 53.8841C103.87 53.8763 103.94 53.8691 104.008 53.8673C105.985 53.7065 107.219 54.1727 107.668 54.5783C108.133 54.9995 107.923 56.8259 107.735 57.7535C107.73 57.7763 107.725 57.7991 107.72 57.8225C107.716 57.8453 107.711 57.8699 107.706 57.8945C107.683 58.0067 107.656 58.1339 107.621 58.2689C107.602 58.3433 107.58 58.4219 107.557 58.5011C107.555 58.5053 107.555 58.5083 107.554 58.5107C107.518 58.6361 107.474 58.7651 107.422 58.8983V58.8995C107.405 58.9427 107.386 58.9883 107.368 59.0321C107.358 59.0579 107.346 59.0843 107.332 59.1113C107.32 59.1407 107.307 59.1695 107.291 59.1995C107.275 59.2361 107.256 59.2739 107.237 59.3105C107.216 59.3519 107.194 59.3933 107.17 59.4335C107.146 59.4767 107.12 59.5199 107.091 59.5643C107.065 59.6069 107.036 59.6519 107.005 59.6957C106.514 60.4055 105.683 61.0037 104.24 60.9995C102.813 60.9965 101.903 60.5057 101.321 59.8865L101.319 59.8859C100.742 59.2685 100.485 58.5263 100.362 58.0121C100.118 56.9711 99.9773 55.7615 100.363 55.1969ZM88.7315 54.2291C88.8407 54.1248 89.0009 54.0179 89.2145 53.9231C89.2277 53.9165 89.2391 53.9117 89.2523 53.9063C89.3183 53.8763 89.3885 53.8487 89.4659 53.8223C89.5073 53.8085 89.5523 53.7929 89.5967 53.7803C89.6315 53.7701 89.6693 53.7581 89.7053 53.7497C89.7299 53.7413 89.7551 53.7365 89.7779 53.7305C89.7881 53.7269 89.7977 53.7251 89.8061 53.7239C89.8409 53.7149 89.8775 53.7071 89.9135 53.6987C90.0539 53.6675 90.2063 53.6429 90.3683 53.6237C90.4481 53.6135 90.5303 53.6045 90.6149 53.5997C90.6629 53.5949 90.7127 53.5925 90.7637 53.5889C90.8021 53.5865 90.8399 53.5853 90.8783 53.5841C90.9797 53.5817 91.0853 53.5793 91.1933 53.5811C91.2317 53.5817 91.2701 53.5817 91.3097 53.5829C91.3445 53.5835 91.3811 53.5847 91.4177 53.5859C91.7003 53.5967 92.0045 53.6249 92.3291 53.6717C93.7391 53.8757 95.2121 54.5291 95.5961 55.1087C95.9801 55.6877 95.8943 56.8925 95.7101 57.9245C95.6729 58.1285 95.6183 58.3655 95.5319 58.6157C95.5271 58.6325 95.5193 58.6505 95.5133 58.6697C95.5055 58.6925 95.4977 58.7159 95.4881 58.7399C95.4821 58.7555 95.4773 58.7711 95.4707 58.7867C95.4599 58.8143 95.4491 58.8425 95.4359 58.8695C95.4119 58.9277 95.3867 58.9835 95.3597 59.0405C95.3375 59.0885 95.3123 59.1383 95.2865 59.1863C95.2769 59.2043 95.2673 59.2218 95.2577 59.238C95.2397 59.2692 95.2205 59.3027 95.1995 59.3357C95.1833 59.3633 95.1659 59.3915 95.1467 59.4203C95.1449 59.4245 95.1419 59.4293 95.1389 59.4341C94.6481 60.1859 93.7721 60.8339 92.2025 60.7751C91.6109 60.7559 91.1219 60.6233 90.7229 60.4199C89.3219 59.7077 88.9637 58.1327 88.7969 57.4025C88.5875 56.4695 88.3133 54.6323 88.7315 54.2291Z" fill="#263238"/>
<path d="M98.2577 56.0758L98.0477 63.7888L93.7433 62.5462L97.7555 56.0122C97.9415 55.9936 98.1065 56.0206 98.2577 56.0758Z" fill="#874C4C"/>
<path d="M158.412 57.0571C170.69 57.0571 180.643 48.3396 180.643 37.5859C180.643 26.8323 170.69 18.1147 158.412 18.1147C146.134 18.1147 136.181 26.8323 136.181 37.5859C136.181 48.3396 146.134 57.0571 158.412 57.0571Z" fill="#6DDEF3"/>
<path d="M140.667 48.8438C140.545 51.4562 138.337 56.1229 134.344 57.8209C134.092 57.9277 134.122 58.2895 134.389 58.3453C136.571 58.7995 142.394 59.3485 146.69 53.6863L140.667 48.8438Z" fill="#6DDEF3"/>
<path d="M143.34 36.0411C143.387 35.1669 143.578 34.3437 143.914 33.5715C144.249 32.7987 144.725 32.1279 145.342 31.5585C145.958 30.9891 146.707 30.5367 147.589 30.2007C148.471 29.8647 149.489 29.6973 150.644 29.6973C151.783 29.6973 152.798 29.8647 153.687 30.2007C154.576 30.5367 155.329 30.9891 155.946 31.5585C156.562 32.1279 157.038 32.7987 157.374 33.5715C157.71 34.3437 157.901 35.1669 157.948 36.0411C157.979 36.7119 157.994 37.4145 157.994 38.1477C157.994 38.8821 157.979 39.5679 157.948 40.2081C157.901 41.0823 157.71 41.9055 157.374 42.6777C157.038 43.4505 156.562 44.1255 155.946 44.7027C155.33 45.2805 154.577 45.7329 153.687 46.0611C152.798 46.3887 151.783 46.5525 150.644 46.5525C149.489 46.5525 148.471 46.3887 147.589 46.0611C146.707 45.7329 145.958 45.2805 145.342 44.7027C144.725 44.1255 144.249 43.4505 143.914 42.6777C143.578 41.9055 143.387 41.0823 143.34 40.2081C143.308 39.5685 143.293 38.8821 143.293 38.1477C143.293 37.4145 143.308 36.7119 143.34 36.0411ZM153.617 40.0911C153.632 39.8097 153.648 39.4983 153.664 39.1545C153.679 38.8119 153.687 38.4609 153.687 38.1015C153.687 37.7421 153.679 37.3953 153.664 37.0599C153.648 36.7239 153.632 36.4239 153.617 36.1581C153.585 35.7687 153.503 35.4093 153.371 35.0817C153.238 34.7535 153.051 34.4691 152.809 34.2267C152.567 33.9855 152.267 33.7935 151.907 33.6537C151.548 33.5133 151.127 33.4425 150.644 33.4425C150.16 33.4425 149.738 33.5127 149.38 33.6537C149.021 33.7935 148.72 33.9855 148.478 34.2267C148.237 34.4691 148.049 34.7535 147.917 35.0817C147.784 35.4093 147.702 35.7687 147.671 36.1581C147.639 36.4239 147.62 36.7239 147.612 37.0599C147.604 37.3959 147.6 37.7427 147.6 38.1015C147.6 38.4609 147.604 38.8119 147.612 39.1545C147.62 39.4983 147.639 39.8103 147.671 40.0911C147.733 40.8717 148.003 41.5191 148.478 42.0339C148.955 42.5487 149.676 42.8061 150.644 42.8061C151.611 42.8061 152.33 42.5487 152.798 42.0339C153.266 41.5191 153.538 40.8711 153.617 40.0911Z" fill="#FAFAFA"/>
<path d="M174.569 45.5452C174.616 45.6076 174.639 45.6934 174.639 45.8026C174.639 45.943 174.588 46.0642 174.487 46.165C174.385 46.267 174.264 46.3174 174.124 46.3174H170.402C170.183 46.3174 170.004 46.2706 169.863 46.177C169.723 46.0834 169.582 45.9508 169.442 45.7792L165.017 40.2076V45.6856C165.017 45.8578 164.955 46.006 164.83 46.1302C164.705 46.2556 164.557 46.318 164.385 46.318H161.318C161.147 46.318 160.999 46.2556 160.874 46.1302C160.749 46.006 160.687 45.8578 160.687 45.6856V30.5632C160.687 30.3916 160.749 30.2434 160.874 30.1186C160.999 29.9938 161.147 29.9308 161.318 29.9308H164.385C164.557 29.9308 164.705 29.9932 164.83 30.1186C164.954 30.2434 165.017 30.3916 165.017 30.5632V35.5024L169.138 30.4456C169.216 30.352 169.317 30.2428 169.442 30.118C169.567 29.9932 169.777 29.9302 170.074 29.9302H173.726C173.866 29.9302 173.987 29.9812 174.089 30.0826C174.19 30.184 174.241 30.3046 174.241 30.445C174.241 30.5548 174.217 30.64 174.17 30.703L168.388 37.7722L174.569 45.5452Z" fill="#FAFAFA"/>
<path d="M215.77 55.9934L212.407 57.0062L209.974 48.8906L213.331 47.8784L215.77 55.9934Z" fill="#E0E0E0"/>
<path d="M226.28 48.7856C226.41 49.2212 225.979 50.159 225.326 50.3564C225.326 50.3564 225.639 50.6876 225.798 51.2156C225.991 51.8438 225.477 52.6886 224.467 52.9898C223.461 53.291 216.769 55.3064 216.769 55.3064L214.503 47.7686L214.498 47.768C214.498 47.768 215.804 44.4338 215.868 43.9322C215.945 43.4384 215.163 41.5808 215.058 41.2316C214.973 40.9472 216.198 40.43 217.184 40.8272C217.411 40.9202 217.626 41.0582 217.812 41.2616C218.198 41.684 218.486 42.098 218.694 42.5258C219.027 43.1864 219.163 43.874 219.163 44.654L223.814 43.2548C224.202 43.1384 224.541 43.172 224.809 43.286C225.224 43.457 225.49 43.8128 225.576 44.1002C225.791 44.78 225.394 45.302 225.181 45.5048C225.181 45.5048 226.173 45.4232 226.453 46.3592C226.61 46.8836 226.35 47.5772 225.686 47.9186C225.686 47.9186 226.085 48.1346 226.28 48.7856Z" fill="#E0E0E0"/>
<path d="M264.003 140.168L259.689 139.131L262.203 128.726L266.512 129.76L264.003 140.168Z" fill="#E0E0E0"/>
<path d="M280.063 138.997C279.928 139.556 278.86 140.304 278.021 140.104C278.021 140.104 278.152 140.665 277.989 141.342C277.8 142.15 276.701 142.745 275.407 142.43C274.117 142.119 265.531 140.054 265.531 140.054L267.86 130.386L267.855 130.382C267.855 130.382 271.405 127.576 271.793 127.069C272.191 126.579 272.522 124.055 272.63 123.607C272.719 123.242 274.384 123.458 275.207 124.519C275.395 124.765 275.543 125.053 275.615 125.394C275.767 126.1 275.818 126.736 275.773 127.335C275.714 128.268 275.426 129.105 274.928 129.956L280.895 131.392C281.393 131.512 281.741 131.764 281.961 132.06C282.305 132.511 282.368 133.068 282.279 133.438C282.079 134.316 281.314 134.633 280.952 134.719C280.952 134.719 282.086 135.262 281.797 136.461C281.634 137.134 280.909 137.724 279.965 137.674C279.967 137.674 280.264 138.163 280.063 138.997Z" fill="#E0E0E0"/>
<path d="M46.0939 133.942L50.8027 135.359L54.2101 123.995L49.5085 122.578L46.0939 133.942Z" fill="#E0E0E0"/>
<path d="M31.3758 123.848C31.1928 124.457 31.7964 125.771 32.7108 126.047C32.7108 126.047 32.2716 126.511 32.0502 127.25C31.7796 128.13 32.4984 129.314 33.9138 129.735C35.322 130.157 44.694 132.979 44.694 132.979L47.8662 122.423L47.8734 122.423C47.8734 122.423 46.044 117.754 45.9546 117.051C45.8484 116.36 46.9422 113.758 47.0886 113.269C47.208 112.871 45.4932 112.147 44.1126 112.703C43.7946 112.833 43.4928 113.026 43.233 113.311C42.693 113.903 42.2886 114.483 41.9976 115.082C41.532 116.007 41.3412 116.969 41.3412 118.062L34.8282 116.102C34.284 115.94 33.8094 115.986 33.4338 116.146C32.853 116.386 32.4804 116.884 32.3598 117.287C32.0604 118.239 32.6154 118.97 32.9136 119.254C32.9136 119.254 31.5246 119.14 31.1316 120.451C30.9114 121.185 31.2762 122.156 32.2068 122.634C32.2068 122.634 31.6494 122.936 31.3758 123.848Z" fill="#E0E0E0"/>
</svg>
